<?xml version="1.0" standalone="no"?>
<!DOCTYPE svg PUBLIC "-//W3C//DTD SVG 20010904//EN"
 "http://www.w3.org/TR/2001/REC-SVG-20010904/DTD/svg10.dtd">
<svg version="1.0" xmlns="http://www.w3.org/2000/svg"
 width="256.000000pt" height="256.000000pt" viewBox="0 0 256.000000 256.000000"
 preserveAspectRatio="xMidYMid meet">
<metadata>
Created by potrace 1.11, written by Peter Selinger 2001-2013
</metadata>
<g transform="translate(0.000000,256.000000) scale(0.100000,-0.100000)"
fill="#000000" stroke="none">
<path d="M728 2437 c-31 -21 -65 -77 -110 -183 -10 -22 -35 -62 -55 -88 -34
-44 -37 -52 -35 -107 4 -95 -57 -251 -131 -335 -37 -42 -39 -47 -41 -121 -3
-93 -46 -214 -109 -308 -33 -50 -39 -68 -38 -107 2 -76 -65 -249 -139 -358
-36 -53 -38 -61 -37 -126 1 -38 -5 -100 -13 -138 -13 -61 -12 -75 3 -134 40
-152 180 -284 327 -310 25 -4 378 -7 785 -6 704 1 742 2 787 20 59 24 131 83
164 135 35 56 464 1472 464 1533 0 76 -30 131 -92 171 -28 17 -28 17 -28 -7 0
-22 -16 -79 -85 -308 -225 -746 -389 -1277 -398 -1292 -7 -10 -30 -27 -53 -38
-39 -19 -64 -20 -793 -20 -533 0 -765 3 -798 11 -86 22 -151 122 -108 169 17
19 42 19 754 22 802 3 775 1 827 60 55 61 59 73 214 583 65 215 141 465 169
558 138 452 151 500 151 545 0 64 -36 129 -91 167 l-44 30 -707 2 -707 2 -33
-22z m1220 -393 c4 -27 -33 -133 -53 -154 -14 -13 -79 -15 -500 -16 -567 -1
-527 -9 -491 100 13 38 32 76 42 83 15 11 113 13 509 11 l490 -3 3 -21z m-131
-375 c8 -8 6 -29 -8 -77 -32 -113 12 -104 -515 -104 -570 0 -523 -1 -531 18
-8 23 28 134 51 156 19 17 47 18 506 18 340 0 489 -3 497 -11z"/>
</g>
</svg>
